{"title":"Naruto Episodes 52-68 Final 3rd Exam Matches MP4 OOTR","uid":7924259,"size":3601783465,"categoryP":"video","categoryS":"tv_shows","magnet":"?xt=urn:btih:bfda50772203085d378341b9284e67f2ccf6a0a7&amp;dn=Naruto+Episodes+52-68+Final+3rd+Exam+Matches+MP4+OOTR&amp;tr=udp%3A%2F%2Ftracker.openbittorrent.com%3A80&amp;tr=udp%3A%2F%2Fopen.demonii.com%3A1337&amp;tr=udp%3A%2F%2Ftracker.coppersurfer.tk%3A6969&amp;tr=udp%3A%2F%2Fexodus.desync.com%3A6969","seeders":0,"leechers":0,"uploader":"OOTR","files":1,"time":1355543640,"description":"Naruto Episodes 52-68\n\nEdited to omit intros/outros and promote continuity.\n\nPlease SEED and enjoy! Leave a comment if you like.\n\nFormat                                   : MPEG-4\nCodec ID                                 : M4V \nFile size                                : 3.35 GiB\nDuration                                 : 5h 14mn\nOverall bit rate mode                    : Variable\nOverall bit rate                         : 1 528 Kbps\nEncoded date                             : UTC 2012-12-13 02:50:20\n\nVideo\nID                                       : 1\nFormat                                   : AVC\nFormat/Info                              : Advanced Video Codec\nFormat profile                           : &lt;a class=&quot;__cf_email__&quot; href=&quot;/cdn-cgi/l/email-protection&quot; data-cfemail=&quot;3e7c5f4d5b5257505b7e720d100e&quot;&gt;[email&amp;#160;protected]&lt;/a&gt;&lt;script cf-hash='f9e31' type=&quot;text/javascript&quot;&gt;\n/* &lt;![CDATA[ */!function(){try{var t=&quot;currentScript&quot;in document?document.currentScript:function(){for(var t=document.getElementsByTagName(&quot;script&quot;),e=t.length;e--;)if(t[e].getAttribute(&quot;cf-hash&quot;))return t[e]}();if(t&amp;&amp;t.previousSibling){var e,r,n,i,c=t.previousSibling,a=c.getAttribute(&quot;data-cfemail&quot;);if(a){for(e=&quot;&quot;,r=parseInt(a.substr(0,2),16),n=2;a.length-n;n+=2)i=parseInt(a.substr(n,2),16)^r,e+=String.fromCharCode(i);e=document.createTextNode(e),c.parentNode.replaceChild(e,c)}}}catch(u){}}();/* ]]&gt; */&lt;/script&gt;\nFormat settings, CABAC                   : No\nFormat settings, ReFrames                : 2 frames\nFormat settings, GOP                     : M=1, N=72\nCodec ID                                 : avc1\nCodec ID/Info                            : Advanced Video Coding\nDuration                                 : 5h 14mn\nSource duration                          : 5h 14mn\nBit rate mode                            : Variable\nBit rate                                 : 1 400 Kbps\nWidth                                    : 640 pixels\nHeight                                   : 480 pixels\nDisplay aspect ratio                     : 4:3\nFrame rate mode                          : Variable\nFrame rate                               : 23.976 fps\nMinimum frame rate                       : 23.976 fps\nMaximum frame rate                       : 24.000 fps\nStandard                                 : NTSC\nColor space                              : YUV\nChroma subsampling                       : 4:2:0\nBit depth                                : 8 bits\nScan type                                : Progressive\nBits/(Pixel*Frame)                       : 0.190\nStream size                              : 3.07 GiB (92%)\nSource stream size                       : 3.07 GiB (92%)\nLanguage                                 : English\nEncoded date                             : UTC 2012-12-13 02:50:20\n\nAudio\nID                                       : 2\nFormat                                   : AAC\nFormat/Info                              : Advanced Audio Codec\nFormat profile                           : LC\nCodec ID                                 : 40\nDuration                                 : 5h 14mn\nSource duration                          : 5h 14mn\nBit rate mode                            : Variable\nBit rate                                 : 126 Kbps\nMaximum bit rate                         : 215 Kbps\nChannel(s)                               : 2 channels\nChannel positions                        : Front: L R\nSampling rate                            : 44.1 KHz\nCompression mode                         : Lossy\nStream size                              : 282 MiB (8%)","torrent":{"xt":"urn:btih:bfda50772203085d378341b9284e67f2ccf6a0a7","amp;dn":"Naruto+Episodes+52-68+Final+3rd+Exam+Matches+MP4+OOTR","amp;tr":["udp%3A%2F%2Ftracker.openbittorrent.com%3A80","udp%3A%2F%2Fopen.demonii.com%3A1337","udp%3A%2F%2Ftracker.coppersurfer.tk%3A6969","udp%3A%2F%2Fexodus.desync.com%3A6969"],"infoHash":"bfda50772203085d378341b9284e67f2ccf6a0a7","infoHashBuffer":{"type":"Buffer","data":[191,218,80,119,34,3,8,93,55,131,65,185,40,78,103,242,204,246,160,167]},"announce":[],"urlList":[]}}